<svg width="21" height="24" viewBox="0 0 21 24" fill="none" xmlns="http://www.w3.org/2000/svg">
<path fill-rule="evenodd" clip-rule="evenodd" d="M4.07862 2.08781C3.83863 2.40819 3.6641 2.77271 3.56499 3.16054L0.132961 16.5832C-0.0673103 17.3663 0.051671 18.1969 0.463736 18.8923C0.8758 19.5877 1.5472 20.0909 2.33027 20.2913L13.0671 23.0381C13.4549 23.1372 13.8585 23.159 14.2547 23.1022C14.651 23.0453 15.0321 22.911 15.3765 22.7069C15.7208 22.5027 16.0216 22.2328 16.2615 21.9124C16.5015 21.592 16.6761 21.2275 16.7752 20.8396L20.2083 7.41693C20.3077 7.02917 20.3297 6.62565 20.2731 6.22939C20.2164 5.83313 20.0823 5.45191 19.8784 5.10747C19.6745 4.76304 19.4047 4.46215 19.0845 4.22199C18.7642 3.98182 18.3998 3.80708 18.0121 3.70774L7.27304 0.962127C6.88522 0.862982 6.48166 0.841201 6.08542 0.898028C5.68918 0.954854 5.30801 1.08917 4.96368 1.29332C4.61935 1.49746 4.3186 1.76743 4.07862 2.08781ZM6.57558 5.93262C6.60266 5.82684 6.65031 5.72743 6.71582 5.64007C6.78133 5.55271 6.86341 5.47911 6.95737 5.42348C7.05133 5.36785 7.15533 5.33127 7.26342 5.31584C7.37152 5.30041 7.4816 5.30643 7.58737 5.33355L15.6372 7.39171C15.8508 7.44629 16.034 7.5835 16.1465 7.77314C16.2589 7.96278 16.2914 8.18933 16.2368 8.40294C16.1822 8.61656 16.045 8.79974 15.8554 8.91219C15.6658 9.02464 15.4392 9.05714 15.2256 9.00256L7.17465 6.94442C7.06886 6.91734 6.96945 6.86969 6.88209 6.80418C6.79473 6.73867 6.72113 6.65659 6.6655 6.56263C6.60987 6.46867 6.57329 6.36467 6.55786 6.25657C6.54243 6.14847 6.54845 6.0384 6.57558 5.93262ZM5.68337 9.42337C5.73783 9.20977 5.8749 9.02656 6.06443 8.91401C6.25396 8.80146 6.48044 8.7688 6.69405 8.8232L14.745 10.8813C14.8508 10.9084 14.9503 10.956 15.0378 11.0215C15.1252 11.0869 15.1989 11.169 15.2546 11.2629C15.3104 11.3569 15.347 11.4609 15.3626 11.569C15.3781 11.6772 15.3722 11.7873 15.3452 11.8931C15.3181 11.999 15.2705 12.0985 15.2051 12.1859C15.1396 12.2733 15.0575 12.347 14.9636 12.4028C14.8696 12.4585 14.7656 12.4952 14.6575 12.5107C14.5494 12.5262 14.4392 12.5203 14.3334 12.4933L6.28243 10.4341C6.17664 10.407 6.07723 10.3593 5.98987 10.2938C5.90251 10.2283 5.82891 10.1462 5.77328 10.0523C5.71765 9.95831 5.68107 9.85431 5.66564 9.74621C5.65021 9.63811 5.65625 9.52914 5.68337 9.42337ZM4.79115 12.913C4.84586 12.6996 4.98303 12.5167 5.17253 12.4043C5.36204 12.292 5.58838 12.2595 5.80184 12.3139L11.1714 13.6856C11.2772 13.7127 11.3767 13.7603 11.4641 13.8258C11.5516 13.8912 11.6253 13.9733 11.681 14.0672C11.7367 14.1612 11.7734 14.2652 11.7889 14.3733C11.8045 14.4815 11.7986 14.5916 11.7715 14.6974C11.7445 14.8033 11.6969 14.9028 11.6314 14.9902C11.5659 15.0776 11.4839 15.1513 11.3899 15.2071C11.296 15.2628 11.192 15.2995 11.0838 15.315C10.9757 15.3305 10.8656 15.3246 10.7597 15.2976L5.39021 13.9237C5.17682 13.869 4.99386 13.7318 4.88154 13.5423C4.76922 13.3528 4.73671 13.1265 4.79115 12.913Z" fill="white"/>
</svg>
