<svg width="291" height="80" viewBox="0 0 291 80" fill="none" xmlns="http://www.w3.org/2000/svg">
<path d="M290.039 4.45074C290.732 1.82509 288.335 -0.572039 285.709 0.12094L273.023 3.46907C269.728 4.33887 269.315 9.22725 272.17 11.089C273.612 12.0296 274.973 13.056 276.038 14.1216C277.104 15.1872 278.13 16.5477 279.071 17.9902C280.933 20.8454 285.821 20.4322 286.691 17.1366L290.039 4.45074Z" fill="#DE2800"/>
<rect y="15" width="275" height="65" rx="21.2206" fill="#DE2800"/>
<path d="M19.8414 40.0668H23.8654L28.1156 50.436H28.2965L32.5466 40.0668H36.5707V55.5H33.4057V45.4549H33.2776L29.2836 55.4246H27.1284L23.1345 45.4172H23.0064V55.5H19.8414V40.0668ZM39.2591 55.5V40.0668H49.6584V42.7571H42.5221V46.4345H49.1234V49.1248H42.5221V52.8097H49.6886V55.5H39.2591ZM52.2526 55.5V40.0668H58.3415C59.507 40.0668 60.5017 40.2753 61.3256 40.6923C62.1546 41.1042 62.785 41.6895 63.2171 42.4481C63.6542 43.2017 63.8727 44.0884 63.8727 45.1082C63.8727 46.1331 63.6517 47.0148 63.2096 47.7533C62.7675 48.4867 62.1269 49.0494 61.2879 49.4413C60.454 49.8331 59.4442 50.0291 58.2586 50.0291H54.1817V47.4066H57.7311C58.354 47.4066 58.8715 47.3212 59.2834 47.1504C59.6954 46.9796 60.0018 46.7234 60.2028 46.3818C60.4088 46.0401 60.5118 45.6156 60.5118 45.1082C60.5118 44.5958 60.4088 44.1637 60.2028 43.8121C60.0018 43.4604 59.6929 43.1941 59.2759 43.0133C58.8639 42.8274 58.344 42.7345 57.716 42.7345H55.5156V55.5H52.2526ZM60.5871 48.4767L64.4228 55.5H60.8207L57.0679 48.4767H60.5871ZM79.0874 40.0668V55.5H76.269L69.5547 45.7864H69.4416V55.5H66.1786V40.0668H69.0422L75.7038 49.7728H75.8395V40.0668H79.0874ZM95.0669 44.5054C95.0066 43.8975 94.7479 43.4252 94.2907 43.0886C93.8336 42.752 93.2131 42.5837 92.4294 42.5837C91.8969 42.5837 91.4472 42.6591 91.0805 42.8098C90.7138 42.9555 90.4324 43.159 90.2365 43.4202C90.0456 43.6814 89.9501 43.9779 89.9501 44.3094C89.9401 44.5857 89.9979 44.8269 90.1235 45.0329C90.2541 45.2388 90.4324 45.4172 90.6585 45.5679C90.8846 45.7136 91.1458 45.8417 91.4422 45.9522C91.7386 46.0577 92.0551 46.1481 92.3917 46.2235L93.7783 46.5551C94.4515 46.7058 95.0694 46.9067 95.6321 47.1579C96.1948 47.4091 96.6821 47.7181 97.094 48.0848C97.506 48.4516 97.825 48.8836 98.0511 49.381C98.2822 49.8783 98.4002 50.4485 98.4052 51.0916C98.4002 52.0361 98.1591 52.855 97.6818 53.5482C97.2096 54.2365 96.5263 54.7715 95.6321 55.1534C94.7429 55.5301 93.6703 55.7185 92.4143 55.7185C91.1684 55.7185 90.0833 55.5276 89.1589 55.1458C88.2395 54.764 87.5211 54.1988 87.0037 53.4503C86.4912 52.6967 86.2225 51.7648 86.1973 50.6545H89.3548C89.39 51.172 89.5382 51.604 89.7994 51.9507C90.0657 52.2923 90.4199 52.551 90.862 52.7268C91.3091 52.8977 91.814 52.9831 92.3766 52.9831C92.9293 52.9831 93.409 52.9027 93.816 52.7419C94.2279 52.5812 94.5469 52.3576 94.773 52.0712C94.9991 51.7849 95.1121 51.4558 95.1121 51.0841C95.1121 50.7374 95.0091 50.446 94.8032 50.2099C94.6022 49.9738 94.3058 49.7728 93.9139 49.607C93.5271 49.4413 93.0523 49.2905 92.4897 49.1549L90.8092 48.7329C89.508 48.4164 88.4807 47.9216 87.7271 47.2484C86.9735 46.5752 86.5992 45.6684 86.6043 44.528C86.5992 43.5935 86.8479 42.7772 87.3503 42.0788C87.8577 41.3805 88.5535 40.8354 89.4377 40.4436C90.3219 40.0517 91.3267 39.8558 92.452 39.8558C93.5974 39.8558 94.5972 40.0517 95.4512 40.4436C96.3103 40.8354 96.9785 41.3805 97.4557 42.0788C97.933 42.7772 98.1792 43.586 98.1942 44.5054H95.0669ZM106.696 43.9251V46.3365H99.7259V43.9251H106.696ZM101.308 41.1519H104.519V51.9431C104.519 52.2395 104.564 52.4706 104.654 52.6364C104.745 52.7972 104.87 52.9102 105.031 52.9755C105.197 53.0408 105.388 53.0735 105.604 53.0735C105.754 53.0735 105.905 53.0609 106.056 53.0358C106.207 53.0057 106.322 52.9831 106.403 52.968L106.907 55.3568C106.747 55.4071 106.521 55.4648 106.229 55.5301C105.938 55.6005 105.584 55.6432 105.167 55.6583C104.393 55.6884 103.715 55.5854 103.132 55.3493C102.554 55.1132 102.105 54.7464 101.783 54.2491C101.462 53.7517 101.303 53.1237 101.308 52.3651V41.1519ZM112.088 55.7185C111.35 55.7185 110.692 55.5904 110.114 55.3342C109.536 55.073 109.079 54.6887 108.742 54.1812C108.411 53.6688 108.245 53.0308 108.245 52.2672C108.245 51.6241 108.363 51.0841 108.599 50.647C108.835 50.2099 109.157 49.8582 109.564 49.592C109.971 49.3257 110.433 49.1248 110.95 48.9891C111.473 48.8535 112.02 48.758 112.593 48.7028C113.266 48.6324 113.809 48.5671 114.221 48.5068C114.633 48.4415 114.932 48.3461 115.118 48.2205C115.304 48.0949 115.396 47.909 115.396 47.6628V47.6176C115.396 47.1404 115.246 46.7711 114.944 46.5099C114.648 46.2486 114.226 46.118 113.678 46.118C113.101 46.118 112.641 46.2461 112.299 46.5023C111.958 46.7535 111.732 47.07 111.621 47.4518L108.652 47.2107C108.803 46.5073 109.099 45.8995 109.541 45.387C109.983 44.8696 110.553 44.4727 111.252 44.1964C111.955 43.9151 112.769 43.7744 113.693 43.7744C114.336 43.7744 114.952 43.8497 115.54 44.0005C116.132 44.1512 116.657 44.3848 117.115 44.7013C117.577 45.0178 117.941 45.4247 118.207 45.9221C118.474 46.4144 118.607 47.0047 118.607 47.693V55.5H115.562V53.8949H115.472C115.286 54.2566 115.037 54.5756 114.726 54.8519C114.414 55.1232 114.04 55.3367 113.603 55.4925C113.166 55.6432 112.661 55.7185 112.088 55.7185ZM113.008 53.503C113.48 53.503 113.897 53.4101 114.259 53.2242C114.62 53.0333 114.904 52.7771 115.11 52.4556C115.316 52.134 115.419 51.7698 115.419 51.3629V50.1346C115.319 50.1999 115.18 50.2601 115.005 50.3154C114.834 50.3656 114.64 50.4134 114.424 50.4586C114.208 50.4988 113.992 50.5365 113.776 50.5716C113.56 50.6018 113.364 50.6294 113.188 50.6545C112.812 50.7098 112.483 50.7977 112.201 50.9183C111.92 51.0388 111.701 51.2021 111.546 51.4081C111.39 51.609 111.312 51.8602 111.312 52.1617C111.312 52.5987 111.47 52.9328 111.787 53.1639C112.108 53.39 112.515 53.503 113.008 53.503ZM126.327 55.7261C125.141 55.7261 124.122 55.4749 123.268 54.9725C122.419 54.4651 121.765 53.7618 121.308 52.8625C120.856 51.9632 120.63 50.9283 120.63 49.7578C120.63 48.5721 120.859 47.5322 121.316 46.638C121.778 45.7387 122.434 45.0379 123.283 44.5355C124.132 44.0281 125.141 43.7744 126.312 43.7744C127.322 43.7744 128.206 43.9578 128.965 44.3245C129.723 44.6912 130.324 45.2062 130.766 45.8693C131.208 46.5325 131.451 47.3112 131.497 48.2054H128.467C128.382 47.6277 128.156 47.163 127.789 46.8113C127.427 46.4546 126.953 46.2763 126.365 46.2763C125.867 46.2763 125.433 46.4119 125.061 46.6832C124.694 46.9494 124.408 47.3388 124.202 47.8512C123.996 48.3637 123.893 48.9841 123.893 49.7125C123.893 50.4511 123.993 51.079 124.194 51.5965C124.4 52.1139 124.689 52.5083 125.061 52.7796C125.433 53.0509 125.867 53.1865 126.365 53.1865C126.731 53.1865 127.061 53.1112 127.352 52.9605C127.648 52.8097 127.892 52.5912 128.083 52.3048C128.279 52.0135 128.407 51.6643 128.467 51.2574H131.497C131.446 52.1416 131.205 52.9203 130.773 53.5935C130.346 54.2616 129.756 54.7841 129.002 55.1609C128.249 55.5377 127.357 55.7261 126.327 55.7261ZM136.461 52.1692L136.468 48.3184H136.935L140.643 43.9251H144.328L139.347 49.7427H138.586L136.461 52.1692ZM133.552 55.5V40.0668H136.762V55.5H133.552ZM140.786 55.5L137.38 50.4586L139.52 48.1903L144.547 55.5H140.786ZM156.346 55.5H150.875V40.0668H156.391C157.943 40.0668 159.28 40.3758 160.4 40.9937C161.52 41.6066 162.382 42.4883 162.985 43.6387C163.593 44.7892 163.896 46.1657 163.896 47.7683C163.896 49.376 163.593 50.7575 162.985 51.913C162.382 53.0685 161.515 53.9552 160.385 54.5731C159.26 55.191 157.913 55.5 156.346 55.5ZM154.138 52.7042H156.21C157.175 52.7042 157.986 52.5334 158.644 52.1918C159.307 51.8452 159.805 51.3101 160.136 50.5867C160.473 49.8582 160.641 48.9188 160.641 47.7683C160.641 46.6279 160.473 45.696 160.136 44.9726C159.805 44.2491 159.31 43.7166 158.652 43.375C157.993 43.0334 157.182 42.8626 156.218 42.8626H154.138V52.7042ZM171.528 55.7261C170.338 55.7261 169.313 55.4849 168.454 55.0026C167.6 54.5153 166.942 53.8271 166.479 52.9378C166.017 52.0436 165.786 50.9861 165.786 49.7653C165.786 48.5747 166.017 47.5297 166.479 46.6304C166.942 45.7312 167.592 45.0303 168.431 44.528C169.275 44.0256 170.265 43.7744 171.4 43.7744C172.164 43.7744 172.875 43.8975 173.533 44.1436C174.196 44.3848 174.774 44.749 175.266 45.2363C175.763 45.7236 176.15 46.3365 176.427 47.075C176.703 47.8085 176.841 48.6676 176.841 49.6523V50.5339H167.067V48.5445H173.819C173.819 48.0823 173.719 47.6729 173.518 47.3162C173.317 46.9595 173.038 46.6807 172.681 46.4797C172.33 46.2737 171.92 46.1708 171.453 46.1708C170.966 46.1708 170.534 46.2838 170.157 46.5099C169.785 46.7309 169.494 47.0298 169.283 47.4066C169.072 47.7784 168.964 48.1928 168.959 48.65V50.5415C168.959 51.1142 169.064 51.609 169.275 52.026C169.491 52.443 169.795 52.7645 170.187 52.9906C170.579 53.2167 171.044 53.3297 171.581 53.3297C171.938 53.3297 172.264 53.2795 172.561 53.179C172.857 53.0785 173.111 52.9278 173.322 52.7268C173.533 52.5259 173.694 52.2797 173.804 51.9883L176.773 52.1843C176.622 52.8977 176.314 53.5206 175.846 54.0531C175.384 54.5806 174.786 54.9926 174.053 55.289C173.324 55.5804 172.483 55.7261 171.528 55.7261ZM189.416 43.9251L185.37 55.5H181.752L177.706 43.9251H181.097L183.501 52.2069H183.621L186.018 43.9251H189.416ZM195.961 55.7261C194.77 55.7261 193.746 55.4849 192.886 55.0026C192.032 54.5153 191.374 53.8271 190.912 52.9378C190.45 52.0436 190.219 50.9861 190.219 49.7653C190.219 48.5747 190.45 47.5297 190.912 46.6304C191.374 45.7312 192.025 45.0303 192.864 44.528C193.708 44.0256 194.698 43.7744 195.833 43.7744C196.597 43.7744 197.307 43.8975 197.966 44.1436C198.629 44.3848 199.206 44.749 199.699 45.2363C200.196 45.7236 200.583 46.3365 200.859 47.075C201.136 47.8085 201.274 48.6676 201.274 49.6523V50.5339H191.5V48.5445H198.252C198.252 48.0823 198.151 47.6729 197.951 47.3162C197.75 46.9595 197.471 46.6807 197.114 46.4797C196.762 46.2737 196.353 46.1708 195.886 46.1708C195.398 46.1708 194.966 46.2838 194.59 46.5099C194.218 46.7309 193.926 47.0298 193.715 47.4066C193.504 47.7784 193.396 48.1928 193.391 48.65V50.5415C193.391 51.1142 193.497 51.609 193.708 52.026C193.924 52.443 194.228 52.7645 194.62 52.9906C195.012 53.2167 195.476 53.3297 196.014 53.3297C196.371 53.3297 196.697 53.2795 196.993 53.179C197.29 53.0785 197.544 52.9278 197.755 52.7268C197.966 52.5259 198.126 52.2797 198.237 51.9883L201.206 52.1843C201.055 52.8977 200.746 53.5206 200.279 54.0531C199.817 54.5806 199.219 54.9926 198.486 55.289C197.757 55.5804 196.916 55.7261 195.961 55.7261ZM206.579 40.0668V55.5H203.369V40.0668H206.579ZM214.38 55.7261C213.21 55.7261 212.197 55.4774 211.343 54.98C210.494 54.4777 209.839 53.7793 209.377 52.8851C208.914 51.9858 208.683 50.9434 208.683 49.7578C208.683 48.5621 208.914 47.5171 209.377 46.6229C209.839 45.7236 210.494 45.0253 211.343 44.528C212.197 44.0256 213.21 43.7744 214.38 43.7744C215.551 43.7744 216.561 44.0256 217.41 44.528C218.264 45.0253 218.922 45.7236 219.384 46.6229C219.846 47.5171 220.077 48.5621 220.077 49.7578C220.077 50.9434 219.846 51.9858 219.384 52.8851C218.922 53.7793 218.264 54.4777 217.41 54.98C216.561 55.4774 215.551 55.7261 214.38 55.7261ZM214.395 53.2393C214.928 53.2393 215.373 53.0886 215.729 52.7871C216.086 52.4807 216.355 52.0637 216.536 51.5362C216.721 51.0087 216.814 50.4084 216.814 49.7352C216.814 49.062 216.721 48.4616 216.536 47.9341C216.355 47.4066 216.086 46.9896 215.729 46.6832C215.373 46.3767 214.928 46.2235 214.395 46.2235C213.858 46.2235 213.406 46.3767 213.039 46.6832C212.677 46.9896 212.403 47.4066 212.218 47.9341C212.037 48.4616 211.946 49.062 211.946 49.7352C211.946 50.4084 212.037 51.0087 212.218 51.5362C212.403 52.0637 212.677 52.4807 213.039 52.7871C213.406 53.0886 213.858 53.2393 214.395 53.2393ZM222.165 59.8406V43.9251H225.33V45.8693H225.473C225.614 45.5578 225.817 45.2413 226.083 44.9198C226.355 44.5933 226.706 44.322 227.138 44.106C227.575 43.8849 228.118 43.7744 228.766 43.7744C229.61 43.7744 230.389 43.9954 231.102 44.4375C231.816 44.8746 232.386 45.5352 232.813 46.4194C233.24 47.2986 233.453 48.4013 233.453 49.7276C233.453 51.0187 233.245 52.1089 232.828 52.9981C232.416 53.8823 231.853 54.553 231.14 55.0102C230.431 55.4623 229.638 55.6884 228.759 55.6884C228.136 55.6884 227.606 55.5854 227.168 55.3794C226.736 55.1735 226.382 54.9147 226.106 54.6032C225.83 54.2867 225.619 53.9677 225.473 53.6462H225.375V59.8406H222.165ZM225.307 49.7125C225.307 50.4008 225.403 51.0012 225.593 51.5136C225.784 52.026 226.061 52.4254 226.422 52.7118C226.784 52.9931 227.224 53.1338 227.741 53.1338C228.264 53.1338 228.706 52.9906 229.067 52.7042C229.429 52.4129 229.703 52.011 229.889 51.4985C230.08 50.9811 230.175 50.3857 230.175 49.7125C230.175 49.0444 230.082 48.4566 229.896 47.9492C229.711 47.4418 229.437 47.0449 229.075 46.7585C228.713 46.4722 228.269 46.329 227.741 46.329C227.219 46.329 226.777 46.4672 226.415 46.7435C226.058 47.0198 225.784 47.4116 225.593 47.919C225.403 48.4264 225.307 49.0243 225.307 49.7125ZM240.868 55.7261C239.678 55.7261 238.653 55.4849 237.794 55.0026C236.94 54.5153 236.282 53.8271 235.819 52.9378C235.357 52.0436 235.126 50.9861 235.126 49.7653C235.126 48.5747 235.357 47.5297 235.819 46.6304C236.282 45.7312 236.932 45.0303 237.771 44.528C238.615 44.0256 239.605 43.7744 240.74 43.7744C241.504 43.7744 242.215 43.8975 242.873 44.1436C243.536 44.3848 244.114 44.749 244.606 45.2363C245.104 45.7236 245.49 46.3365 245.767 47.075C246.043 47.8085 246.181 48.6676 246.181 49.6523V50.5339H236.407V48.5445H243.159C243.159 48.0823 243.059 47.6729 242.858 47.3162C242.657 46.9595 242.378 46.6807 242.021 46.4797C241.67 46.2737 241.26 46.1708 240.793 46.1708C240.306 46.1708 239.874 46.2838 239.497 46.5099C239.125 46.7309 238.834 47.0298 238.623 47.4066C238.412 47.7784 238.304 48.1928 238.299 48.65V50.5415C238.299 51.1142 238.404 51.609 238.615 52.026C238.831 52.443 239.135 52.7645 239.527 52.9906C239.919 53.2167 240.384 53.3297 240.921 53.3297C241.278 53.3297 241.604 53.2795 241.901 53.179C242.197 53.0785 242.451 52.9278 242.662 52.7268C242.873 52.5259 243.034 52.2797 243.144 51.9883L246.113 52.1843C245.963 52.8977 245.654 53.5206 245.186 54.0531C244.724 54.5806 244.126 54.9926 243.393 55.289C242.664 55.5804 241.823 55.7261 240.868 55.7261ZM248.276 55.5V43.9251H251.388V45.9447H251.509C251.72 45.2263 252.074 44.6837 252.571 44.317C253.069 43.9452 253.642 43.7593 254.29 43.7593C254.45 43.7593 254.624 43.7694 254.81 43.7895C254.995 43.8096 255.159 43.8372 255.299 43.8723V46.7209C255.149 46.6756 254.94 46.6355 254.674 46.6003C254.408 46.5651 254.164 46.5475 253.943 46.5475C253.471 46.5475 253.049 46.6505 252.677 46.8565C252.31 47.0575 252.019 47.3388 251.803 47.7005C251.592 48.0622 251.486 48.4792 251.486 48.9514V55.5H248.276Z" fill="black"/>
</svg>
