<svg width="25" height="24" viewBox="0 0 25 24" fill="none" xmlns="http://www.w3.org/2000/svg">
<path d="M4.95638 4.8724C5.3549 4.47388 5.8954 4.25 6.45898 4.25H19.209C19.7726 4.25 20.3131 4.47388 20.7116 4.8724C21.1101 5.27091 21.334 5.81141 21.334 6.375C21.334 6.93859 21.1101 7.47909 20.7116 7.8776C20.3131 8.27612 19.7726 8.5 19.209 8.5H6.45898C5.8954 8.5 5.3549 8.27612 4.95638 7.8776C4.55787 7.47909 4.33398 6.93859 4.33398 6.375C4.33398 5.81141 4.55787 5.27091 4.95638 4.8724ZM4.40721 11.8232C4.45409 11.7763 4.51768 11.75 4.58398 11.75H21.084C21.1503 11.75 21.2139 11.7763 21.2608 11.8232C21.3076 11.8701 21.334 11.9337 21.334 12C21.334 12.0663 21.3076 12.1299 21.2608 12.1768C21.2139 12.2237 21.1503 12.25 21.084 12.25H4.58398C4.51768 12.25 4.45409 12.2237 4.40721 12.1768C4.36032 12.1299 4.33398 12.0663 4.33398 12C4.33398 11.9337 4.36032 11.8701 4.40721 11.8232ZM4.33398 15.75C4.33398 15.6837 4.36032 15.6201 4.40721 15.5732C4.45409 15.5263 4.51768 15.5 4.58398 15.5H21.084C21.1503 15.5 21.2139 15.5263 21.2608 15.5732C21.3076 15.6201 21.334 15.6837 21.334 15.75C21.334 15.8163 21.3076 15.8799 21.2608 15.9268C21.2139 15.9737 21.1503 16 21.084 16H4.58398C4.51768 16 4.45409 15.9737 4.40721 15.9268C4.36032 15.8799 4.33398 15.8163 4.33398 15.75ZM4.40721 19.3232C4.45409 19.2763 4.51768 19.25 4.58398 19.25H21.084C21.1503 19.25 21.2139 19.2763 21.2608 19.3232C21.3076 19.3701 21.334 19.4337 21.334 19.5C21.334 19.5663 21.3076 19.6299 21.2608 19.6768C21.2139 19.7237 21.1503 19.75 21.084 19.75H4.58398C4.51768 19.75 4.45409 19.7237 4.40721 19.6768C4.36032 19.6299 4.33398 19.5663 4.33398 19.5C4.33398 19.4337 4.36032 19.3701 4.40721 19.3232Z" fill="white" stroke="white"/>
</svg>
