<svg width="25" height="24" viewBox="0 0 25 24" fill="none" xmlns="http://www.w3.org/2000/svg">
<path d="M21.5447 2.62252C21.1462 2.22412 20.6057 2.00031 20.0422 2.00031C19.4787 2.00031 18.9383 2.22413 18.5398 2.62255C18.5398 2.62256 18.5398 2.62257 18.5398 2.62258L17.7364 3.42599L20.7412 6.43089L21.5447 5.62747C21.5447 5.62746 21.5447 5.62745 21.5447 5.62744C21.9431 5.22894 22.1669 4.6885 22.1669 4.12499C22.1669 3.5615 21.9431 3.02108 21.5447 2.62258C21.5447 2.62256 21.5447 2.62254 21.5447 2.62252ZM21.5447 2.62252L21.8982 2.26899L21.5447 2.62252ZM4.1718 16.9905L15.9682 5.1941L18.9731 8.199L7.17669 19.9954L7.1766 19.9955C6.61851 20.5539 5.93005 20.9644 5.17347 21.1898L2.48847 21.9898L2.48841 21.9898C2.44522 22.0027 2.39935 22.0037 2.35566 21.9926C2.31197 21.9816 2.27208 21.9589 2.24022 21.927C2.20835 21.8952 2.18569 21.8553 2.17463 21.8116C2.16358 21.7679 2.16454 21.722 2.17741 21.6788L2.17743 21.6788L2.97743 18.9938C3.20287 18.2372 3.61334 17.5487 4.17171 16.9906L4.1718 16.9905Z" fill="white" stroke="white"/>
</svg>
