<svg width="25" height="24" viewBox="0 0 25 24" fill="none" xmlns="http://www.w3.org/2000/svg">
<path d="M16.832 5.91152V5.455V5.25C16.832 4.58696 16.5686 3.95107 16.0998 3.48223C15.631 3.01339 14.9951 2.75 14.332 2.75H11.332C10.669 2.75 10.0331 3.01339 9.56426 3.48223C9.09542 3.95107 8.83203 4.58696 8.83203 5.25V5.455V5.91136L8.37757 5.95292C7.45941 6.03689 6.54384 6.14713 5.63198 6.2835L5.63184 6.28352C4.43559 6.46205 3.58203 7.50644 3.58203 8.706V11.739C3.58203 12.7544 4.19626 13.6905 5.1758 14.0165C7.58255 14.8168 10.1563 15.25 12.832 15.25H12.8325C15.4341 15.2526 18.0191 14.8361 20.4882 14.0166L16.832 5.91152ZM16.832 5.91152L17.2867 5.95294M16.832 5.91152L17.2867 5.95294M17.2867 5.95294C18.2098 6.03704 19.1243 6.14788 20.0322 6.28351M17.2867 5.95294L20.0322 6.28351M20.0322 6.28351C21.2288 6.46306 22.082 7.50681 22.082 8.706M20.0322 6.28351L22.082 8.706M22.082 8.706V11.739M22.082 8.706V11.739M22.082 11.739C22.082 12.7543 21.4679 13.6904 20.4885 14.0165L22.082 11.739ZM15.8017 5.83908L16.332 5.87129V5.34V5.25C16.332 4.71957 16.1213 4.21086 15.7462 3.83579C15.3712 3.46071 14.8625 3.25 14.332 3.25H11.332C10.8016 3.25 10.2929 3.46071 9.91782 3.83579C9.54275 4.21086 9.33203 4.71957 9.33203 5.25V5.34V5.87129L9.86234 5.83908C11.8403 5.71895 13.8237 5.71895 15.8017 5.83908ZM12.832 14C13.1636 14 13.4815 13.8683 13.7159 13.6339C13.9503 13.3995 14.082 13.0815 14.082 12.75C14.082 12.4185 13.9503 12.1005 13.7159 11.8661C13.4815 11.6317 13.1636 11.5 12.832 11.5C12.5005 11.5 12.1826 11.6317 11.9481 11.8661C11.7137 12.1005 11.582 12.4185 11.582 12.75C11.582 13.0815 11.7137 13.3995 11.9481 13.6339C12.1826 13.8683 12.5005 14 12.832 14Z" fill="white" stroke="white"/>
<path d="M3.83203 18.4V15.604C4.05985 15.7287 4.29849 15.8324 4.54503 15.914C7.21772 16.8014 10.0159 17.2525 12.832 17.25C15.724 17.25 18.512 16.782 21.119 15.915C21.371 15.831 21.609 15.726 21.832 15.604V18.4C21.832 19.852 20.785 21.128 19.309 21.323C17.189 21.605 15.027 21.75 12.832 21.75C10.666 21.7504 8.50227 21.6078 6.35503 21.323C4.87903 21.128 3.83203 19.852 3.83203 18.4Z" fill="white"/>
</svg>
