<svg width="114" height="114" viewBox="0 0 114 114" fill="none" xmlns="http://www.w3.org/2000/svg">
<mask id="mask0_1305_6507" style="mask-type:alpha" maskUnits="userSpaceOnUse" x="0" y="0" width="114" height="114">
<rect x="0.333984" width="113.667" height="114" rx="27" fill="#D9D9D9"/>
</mask>
<g mask="url(#mask0_1305_6507)">
</g>
<g clip-path="url(#clip0_1305_6507)">
<path fill-rule="evenodd" clip-rule="evenodd" d="M21.6345 0H92.0434C103.988 0 113.667 9.70783 113.667 21.6978V92.3131C113.667 104.292 103.988 114.011 92.0325 114.011H21.6345C9.67947 114 0 104.292 0 92.3021V21.6978C0 9.70783 9.67947 0 21.6345 0Z" fill="#50C800"/>
<path fill-rule="evenodd" clip-rule="evenodd" d="M113.67 73.6436V40.6683C112.383 37.5177 110.484 34.6788 108.131 32.2964C108.342 28.7561 107.554 25.1714 105.723 21.9763C104.524 19.8833 101.626 19.5827 100.006 21.3862L96.3318 25.472C96.3096 25.4609 96.2873 25.4609 96.265 25.4497C96.7424 21.7202 96.1095 17.8683 94.289 14.4282C93.1569 12.2907 90.704 11.9122 89.0167 13.649L71.3669 31.5839C71.1673 31.7731 70.9564 31.9735 70.7568 32.1739C70.7454 32.1851 70.7231 32.1962 70.7122 32.2073C63.042 39.1765 51.0869 39.4659 43.7829 33.0646C43.3277 32.5636 42.8504 32.0849 42.3509 31.6173L24.6681 13.6601C22.9809 11.9234 20.5277 12.3019 19.3955 14.4394C17.5862 17.8683 16.9424 21.698 17.4086 25.4052C17.3752 25.4163 17.342 25.4163 17.3086 25.4274L13.6788 21.3862C12.0582 19.5827 9.16103 19.8833 7.95111 21.9763C6.15285 25.1046 5.36473 28.6114 5.53123 32.0849C3.21127 34.3782 1.32422 37.1169 -0.0078125 40.1561V74.1667C3.97719 83.2849 13.0572 89.6638 23.6136 89.6638H24.7458C35.2134 89.6638 44.2268 83.3961 48.2562 74.4006C52.1304 74.3783 54.9384 74.3673 56.6816 74.3673C60.4554 74.3564 63.3971 74.3564 65.5063 74.3564C69.5246 83.3738 78.5602 89.6638 89.0385 89.6638H89.8378C100.594 89.6638 109.807 83.0395 113.67 73.6436Z" fill="#8EE000"/>
<path fill-rule="evenodd" clip-rule="evenodd" d="M25.2135 33.8438C35.1149 33.8438 43.1516 41.8928 43.1516 51.8345V62.4885C43.1516 72.4188 35.126 80.4791 25.2135 80.4791C15.312 80.4791 7.27539 72.4302 7.27539 62.4885V51.8345C7.27539 41.8928 15.312 33.8438 25.2135 33.8438Z" fill="white"/>
<path fill-rule="evenodd" clip-rule="evenodd" d="M88.2295 33.8438C98.1308 33.8438 106.168 41.8928 106.168 51.8345V62.4885C106.168 72.4188 98.1417 80.4791 88.2295 80.4791C78.3277 80.4791 70.291 72.4302 70.291 62.4885V51.8345C70.291 41.8928 78.3168 33.8438 88.2295 33.8438Z" fill="white"/>
<path fill-rule="evenodd" clip-rule="evenodd" d="M27.9768 44.175C32.6722 44.175 36.4907 47.9936 36.4907 52.7141V61.8318C36.4907 66.5409 32.6833 70.3704 27.9768 70.3704C23.2814 70.3704 19.4629 66.5519 19.4629 61.8318V52.7141C19.4629 47.9936 23.2814 44.175 27.9768 44.175Z" fill="#4B4B4B"/>
<path fill-rule="evenodd" clip-rule="evenodd" d="M56.8381 64.8733C62.2213 64.8733 66.5839 69.2486 66.5839 74.6476V78.0435C66.5839 83.443 62.2213 87.8178 56.8381 87.8178C51.4543 87.8178 47.0918 83.443 47.0918 78.0435V74.6476C47.0918 69.2486 51.4543 64.8733 56.8381 64.8733Z" fill="#F48000"/>
<path d="M43.3848 75.583C44.5503 69.3491 50.3113 64.8511 57.2045 64.8511C63.4762 64.8511 69.1487 69.4603 70.2917 75.583V76.0842C70.2917 76.4741 70.1585 76.6296 69.8034 76.5853L57.2159 78.8339C56.8717 78.8339 56.8272 78.8339 56.4721 78.8339L43.8732 76.5739C43.5179 76.6186 43.3848 76.4627 43.3848 76.0732V75.583Z" fill="#FFC200"/>
<path fill-rule="evenodd" clip-rule="evenodd" d="M54.7722 67.0105C55.4273 66.855 56.1043 66.7656 56.7813 66.7656C57.5029 66.7656 58.2358 66.855 58.9574 67.0442C60.4223 67.4227 61.4435 68.7474 61.4435 70.2613C61.4435 71.4861 60.4555 72.4656 59.2456 72.4656H54.4284C53.2072 72.4656 52.2306 71.4747 52.2306 70.2613C52.2192 68.7251 53.274 67.378 54.7722 67.0105Z" fill="#FFE747"/>
<path fill-rule="evenodd" clip-rule="evenodd" d="M85.4648 44.175C90.1606 44.175 93.9789 47.9936 93.9789 52.7141V61.8318C93.9789 66.5409 90.1716 70.3704 85.4648 70.3704C80.7695 70.3704 76.9512 66.5519 76.9512 61.8318V52.7141C76.9621 47.9936 80.7695 44.175 85.4648 44.175Z" fill="#4B4B4B"/>
<path d="M20.7837 54.5284C23.8183 54.5284 26.2783 52.0711 26.2783 49.04C26.2783 46.009 23.8183 43.5515 20.7837 43.5515C17.7491 43.5515 15.2891 46.009 15.2891 49.04C15.2891 52.0711 17.7491 54.5284 20.7837 54.5284Z" fill="white"/>
<path d="M77.44 54.5284C80.4744 54.5284 82.9346 52.0711 82.9346 49.04C82.9346 46.009 80.4744 43.5515 77.44 43.5515C74.4051 43.5515 71.9453 46.009 71.9453 49.04C71.9453 52.0711 74.4051 54.5284 77.44 54.5284Z" fill="white"/>
</g>
<defs>
<clipPath id="clip0_1305_6507">
<rect width="113.667" height="114" fill="white"/>
</clipPath>
</defs>
</svg>
