<svg width="25" height="24" viewBox="0 0 25 24" fill="none" xmlns="http://www.w3.org/2000/svg">
<path d="M4.75102 20.1139L4.75104 20.1128C4.78271 18.0785 5.61306 16.1383 7.06285 14.7109C8.51263 13.2835 10.4656 12.4834 12.5001 12.4834C14.5346 12.4834 16.4876 13.2835 17.9373 14.7109C19.3871 16.1383 20.2175 18.0785 20.2492 20.1128L20.2492 20.1139C20.25 20.1625 20.2367 20.2103 20.2109 20.2515C20.185 20.2926 20.1477 20.3253 20.1035 20.3456C17.7183 21.4392 15.1247 22.0036 12.5008 22H12.5001C9.78747 22 7.21151 21.4081 4.89668 20.3456C4.85251 20.3253 4.81521 20.2926 4.78934 20.2515C4.76347 20.2103 4.75015 20.1625 4.75102 20.1139ZM8.5001 6C8.5001 4.93913 8.92152 3.92172 9.67167 3.17157C10.4218 2.42143 11.4392 2 12.5001 2C13.561 2 14.5784 2.42143 15.3285 3.17157C16.0787 3.92172 16.5001 4.93913 16.5001 6C16.5001 7.06087 16.0787 8.07828 15.3285 8.82843C14.5784 9.57857 13.561 10 12.5001 10C11.4392 10 10.4218 9.57857 9.67167 8.82843C8.92152 8.07828 8.5001 7.06087 8.5001 6Z" fill="white" stroke="white"/>
</svg>
